<?xml version="1.0" encoding="UTF-8" standalone="no"?>
<!DOCTYPE svg PUBLIC "-//W3C//DTD SVG 1.1//EN" "http://www.w3.org/Graphics/SVG/1.1/DTD/svg11.dtd">
<svg version="1.1" xmlns="http://www.w3.org/2000/svg" xmlns:xlink="http://www.w3.org/1999/xlink" preserveAspectRatio="xMidYMid meet" viewBox="0 0 640 640" width="640" height="640"><defs><path d="M303.21 591.8C193.74 591.8 104.99 503.05 104.99 393.58C104.99 355.93 115.48 320.72 133.73 290.75C133.73 290.75 158.97 344.61 202.33 327.2C219.38 320.36 238.79 301.15 220.49 269.46C200.75 235.29 211.22 187.03 254.73 168.56C303.21 147.98 303.21 79.8 303.21 79.8C308.09 82.93 379.8 130.47 353.49 191.69C337.77 228.27 335.89 272.6 368.58 282.4C407.7 294.14 428.35 239.86 428.35 239.86C472.94 276.2 501.43 331.56 501.43 393.58C501.43 503.05 412.68 591.8 303.21 591.8Z" id="f19V2VhBz"></path><path d="M303.21 591.8C303.21 540.6 303.21 131 303.21 79.8C308.09 82.93 379.8 130.47 353.49 191.69C337.77 228.27 335.89 272.6 368.58 282.4C407.7 294.14 428.35 239.86 428.35 239.86C472.94 276.2 501.43 331.56 501.43 393.58C501.43 503.05 412.68 591.8 303.21 591.8Z" id="aed7RwSU3"></path><path d="M304.33 588.43C251.77 588.43 209.16 545.82 209.14 493.27C209.14 493.25 209.14 493.25 209.14 493.23C208.9 473.42 213.18 449.99 225.11 422.8C229 423.94 260.13 433.04 264.02 434.18C264.02 394.62 285.08 368.01 304.33 351.95C320.51 338.47 335.43 332.43 335.43 332.43C340.31 391.27 374.83 425.49 386.9 447.14C397.35 465.9 399.53 477.53 399.53 493.25C399.53 553.17 349.02 588.43 304.33 588.43Z" id="bgKQ9vOVf"></path><path d="M304.33 588.43C304.33 564.78 304.33 375.6 304.33 351.95C320.51 338.47 335.43 332.43 335.43 332.43C340.31 391.27 374.83 425.49 386.9 447.14C397.35 465.9 399.53 477.53 399.53 493.25C399.53 553.17 349.02 588.43 304.33 588.43Z" id="aavqc8kSEO"></path><path d="M407.76 152.76C403.47 152.76 400 156.23 400 160.52C400 164.8 403.47 168.28 407.76 168.28C412.04 168.28 415.52 164.8 415.52 160.52C415.52 156.23 412.04 152.76 407.76 152.76Z" id="aw96lXL4U"></path><path d="M454.31 199.31C450.03 199.31 446.55 202.78 446.55 207.07C446.55 211.35 450.03 214.83 454.31 214.83C458.6 214.83 462.07 211.35 462.07 207.07C462.07 202.78 458.6 199.31 454.31 199.31Z" id="b49lo9Z7Cx"></path><path d="M424.89 182.18C420.61 182.18 417.13 185.65 417.13 189.94C417.13 194.22 420.61 197.69 424.89 197.69C429.18 197.69 432.65 194.22 432.65 189.94C432.65 185.65 429.18 182.18 424.89 182.18Z" id="bkZZquXfW"></path><path d="M407.76 152.76C403.47 152.76 400 156.23 400 160.52C400 164.8 403.47 168.28 407.76 168.28C412.04 168.28 415.52 164.8 415.52 160.52C415.52 156.23 412.04 152.76 407.76 152.76Z" id="g4PmCQhiC"></path><path d="M462.07 207.07C462.07 202.78 458.6 199.31 454.31 199.31C450.03 199.31 446.55 202.78 446.55 207.07C446.55 211.35 450.03 214.83 454.31 214.83C458.6 214.83 462.07 211.35 462.07 207.07" id="c2Wpa9iF78"></path><path d="M424.89 182.18C420.61 182.18 417.13 185.65 417.13 189.94C417.13 194.22 420.61 197.69 424.89 197.69C429.18 197.69 432.65 194.22 432.65 189.94C432.65 185.65 429.18 182.18 424.89 182.18Z" id="aosMVtQdy"></path><path d="M407.76 116.55C403.47 116.55 400 120.03 400 124.31C400 128.6 403.47 132.07 407.76 132.07C412.04 132.07 415.52 128.6 415.52 124.31C415.52 120.03 412.04 116.55 407.76 116.55Z" id="i2YQoF4hd7"></path><path d="M454.31 70C450.03 70 446.55 73.47 446.55 77.76C446.55 82.04 450.03 85.52 454.31 85.52C458.6 85.52 462.07 82.04 462.07 77.76C462.07 73.47 458.6 70 454.31 70Z" id="a5wLQ0FYhg"></path><path d="M424.89 87.13C420.61 87.13 417.13 90.61 417.13 94.89C417.13 99.18 420.61 102.65 424.89 102.65C429.18 102.65 432.65 99.18 432.65 94.89C432.65 90.61 429.18 87.13 424.89 87.13Z" id="a3dlkDJ83F"></path><path d="M407.76 116.55C403.47 116.55 400 120.03 400 124.31C400 128.6 403.47 132.07 407.76 132.07C412.04 132.07 415.52 128.6 415.52 124.31C415.52 120.03 412.04 116.55 407.76 116.55Z" id="a45SAx9yD"></path><path d="M462.07 77.76C462.07 82.04 458.6 85.52 454.31 85.52C450.03 85.52 446.55 82.04 446.55 77.76C446.55 73.47 450.03 70 454.31 70C458.6 70 462.07 73.47 462.07 77.76" id="a5jrtZ6Eq"></path><path d="M424.89 87.13C420.61 87.13 417.13 90.61 417.13 94.89C417.13 99.18 420.61 102.65 424.89 102.65C429.18 102.65 432.65 99.18 432.65 94.89C432.65 90.61 429.18 87.13 424.89 87.13Z" id="eRxWDajJZ"></path><path d="M485.34 207.07C485.34 203.59 487.66 200.53 491.02 199.59C503.38 196.11 514.3 188.76 522.16 178.61C530.19 168.26 534.53 155.52 534.48 142.41C534.48 116.07 516.59 92.55 490.97 85.22C486.86 84 484.52 79.68 485.74 75.58C486.94 71.52 491.16 69.18 495.24 70.3C510.75 74.79 524.44 84.08 534.35 96.84C555.18 123.68 555.22 161.21 534.44 188.09C524.53 200.88 510.77 210.15 495.19 214.54C494.51 214.73 493.81 214.83 493.1 214.83C488.82 214.83 485.34 211.36 485.34 207.07Z" id="bd7qmyzh"></path><path d="M538.8 219.95C534.14 219.43 496.9 215.3 492.25 214.78C487.99 214.31 484.92 210.47 485.39 206.21C485.44 205.8 485.52 205.39 485.63 204.99C486.92 200.34 497.27 163.1 498.56 158.44C499.69 154.31 503.95 151.87 508.09 153C512.22 154.12 514.66 158.39 513.53 162.52C513.52 162.55 513.52 162.57 513.51 162.59C512.81 165.11 509.31 177.7 503.02 200.36C525.51 202.86 538.01 204.25 540.51 204.53C544.77 205 547.84 208.84 547.37 213.1C546.93 217.02 543.62 220 539.66 220C539.37 220 539.09 219.98 538.8 219.95Z" id="detYgMPZP"></path></defs><g><g><g><use xlink:href="#f19V2VhBz" opacity="1" fill="#fcd703" fill-opacity="1"></use><g><use xlink:href="#f19V2VhBz" opacity="1" fill-opacity="0" stroke="#000000" stroke-width="1" stroke-opacity="0"></use></g></g><g><use xlink:href="#aed7RwSU3" opacity="1" fill="#fe9100" fill-opacity="1"></use><g><use xlink:href="#aed7RwSU3" opacity="1" fill-opacity="0" stroke="#000000" stroke-width="1" stroke-opacity="0"></use></g></g><g><use xlink:href="#bgKQ9vOVf" opacity="1" fill="#ff7b49" fill-opacity="1"></use><g><use xlink:href="#bgKQ9vOVf" opacity="1" fill-opacity="0" stroke="#000000" stroke-width="1" stroke-opacity="0"></use></g></g><g><use xlink:href="#aavqc8kSEO" opacity="1" fill="#fd435b" fill-opacity="1"></use><g><use xlink:href="#aavqc8kSEO" opacity="1" fill-opacity="0" stroke="#000000" stroke-width="1" stroke-opacity="0"></use></g></g><g><use xlink:href="#aw96lXL4U" opacity="1" fill="#8690fa" fill-opacity="1"></use><g><use xlink:href="#aw96lXL4U" opacity="1" fill-opacity="0" stroke="#000000" stroke-width="1" stroke-opacity="0"></use></g></g><g><use xlink:href="#b49lo9Z7Cx" opacity="1" fill="#8690fa" fill-opacity="1"></use><g><use xlink:href="#b49lo9Z7Cx" opacity="1" fill-opacity="0" stroke="#000000" stroke-width="1" stroke-opacity="0"></use></g></g><g><use xlink:href="#bkZZquXfW" opacity="1" fill="#8690fa" fill-opacity="1"></use><g><use xlink:href="#bkZZquXfW" opacity="1" fill-opacity="0" stroke="#000000" stroke-width="1" stroke-opacity="0"></use></g></g><g><use xlink:href="#g4PmCQhiC" opacity="1" fill="#fcd703" fill-opacity="1"></use><g><use xlink:href="#g4PmCQhiC" opacity="1" fill-opacity="0" stroke="#000000" stroke-width="1" stroke-opacity="0"></use></g></g><g><use xlink:href="#c2Wpa9iF78" opacity="1" fill="#fcd703" fill-opacity="1"></use><g><use xlink:href="#c2Wpa9iF78" opacity="1" fill-opacity="0" stroke="#000000" stroke-width="1" stroke-opacity="0"></use></g></g><g><use xlink:href="#aosMVtQdy" opacity="1" fill="#fe9100" fill-opacity="1"></use><g><use xlink:href="#aosMVtQdy" opacity="1" fill-opacity="0" stroke="#000000" stroke-width="1" stroke-opacity="0"></use></g></g><g><use xlink:href="#i2YQoF4hd7" opacity="1" fill="#8690fa" fill-opacity="1"></use><g><use xlink:href="#i2YQoF4hd7" opacity="1" fill-opacity="0" stroke="#000000" stroke-width="1" stroke-opacity="0"></use></g></g><g><use xlink:href="#a5wLQ0FYhg" opacity="1" fill="#8690fa" fill-opacity="1"></use><g><use xlink:href="#a5wLQ0FYhg" opacity="1" fill-opacity="0" stroke="#000000" stroke-width="1" stroke-opacity="0"></use></g></g><g><use xlink:href="#a3dlkDJ83F" opacity="1" fill="#8690fa" fill-opacity="1"></use><g><use xlink:href="#a3dlkDJ83F" opacity="1" fill-opacity="0" stroke="#000000" stroke-width="1" stroke-opacity="0"></use></g></g><g><use xlink:href="#a45SAx9yD" opacity="1" fill="#fe9100" fill-opacity="1"></use><g><use xlink:href="#a45SAx9yD" opacity="1" fill-opacity="0" stroke="#000000" stroke-width="1" stroke-opacity="0"></use></g></g><g><use xlink:href="#a5jrtZ6Eq" opacity="1" fill="#fe9100" fill-opacity="1"></use><g><use xlink:href="#a5jrtZ6Eq" opacity="1" fill-opacity="0" stroke="#000000" stroke-width="1" stroke-opacity="0"></use></g></g><g><use xlink:href="#eRxWDajJZ" opacity="1" fill="#fcd703" fill-opacity="1"></use><g><use xlink:href="#eRxWDajJZ" opacity="1" fill-opacity="0" stroke="#000000" stroke-width="1" stroke-opacity="0"></use></g></g><g><use xlink:href="#bd7qmyzh" opacity="1" fill="#fcd703" fill-opacity="1"></use><g><use xlink:href="#bd7qmyzh" opacity="1" fill-opacity="0" stroke="#000000" stroke-width="1" stroke-opacity="0"></use></g></g><g><use xlink:href="#detYgMPZP" opacity="1" fill="#fe9100" fill-opacity="1"></use><g><use xlink:href="#detYgMPZP" opacity="1" fill-opacity="0" stroke="#000000" stroke-width="1" stroke-opacity="0"></use></g></g></g></g></svg>